<svg xmlns="http://www.w3.org/2000/svg" viewBox="0 0 100 100" width="100" height="100">
  <circle cx="50" cy="50" r="50" fill="#0f172a" />
  <circle cx="50" cy="40" r="17" fill="#fde68a" />
  <!-- Hair long -->
  <path d="M 30 38 Q 30 18 50 18 Q 70 18 70 38 Q 74 65 68 75 Q 64 50 64 38 Q 50 24 36 38 Q 36 50 32 75 Q 26 65 30 38 Z" fill="#3b2d24" />
  <!-- Smile & eyes -->
  <circle cx="43" cy="38" r="2" fill="#1e293b" />
  <circle cx="57" cy="38" r="2" fill="#1e293b" />
  <path d="M 44 47 Q 50 52 56 47" fill="none" stroke="#b45309" stroke-width="2" stroke-linecap="round" />
  <!-- Dress -->
  <path d="M 22 88 C 24 65 35 60 50 60 C 65 60 76 65 78 88 Z" fill="#d97706" />
</svg>
